<?xml version="1.0" encoding="UTF-8" standalone="no"?>
<svg
   width="101"
   height="64"
   viewBox="0 0 101 64"
   fill="none"
   version="1.1"
   id="svg379"
   sodipodi:docname="vector5419-qmf.svg"
   inkscape:version="1.2.2 (b0a8486541, 2022-12-01)"
   xmlns:inkscape="http://www.inkscape.org/namespaces/inkscape"
   xmlns:sodipodi="http://sodipodi.sourceforge.net/DTD/sodipodi-0.dtd"
   xmlns="http://www.w3.org/2000/svg"
   xmlns:svg="http://www.w3.org/2000/svg">
  <sodipodi:namedview
     id="namedview381"
     pagecolor="#505050"
     bordercolor="#eeeeee"
     borderopacity="1"
     inkscape:showpageshadow="0"
     inkscape:pageopacity="0"
     inkscape:pagecheckerboard="0"
     inkscape:deskcolor="#505050"
     showgrid="false"
     inkscape:zoom="13.118812"
     inkscape:cx="46.764906"
     inkscape:cy="24.35434"
     inkscape:window-width="1916"
     inkscape:window-height="1050"
     inkscape:window-x="0"
     inkscape:window-y="26"
     inkscape:window-maximized="1"
     inkscape:current-layer="g358" />
  <g
     filter="url(#filter0_d_54_1953)"
     id="g358">
    <path
       fill-rule="evenodd"
       clip-rule="evenodd"
       d="M10.915 3.915C11.2043 3.62496 11.548 3.39484 11.9264 3.23783C12.3048 3.08082 12.7104 3 13.1201 3C13.5297 3 13.9354 3.08082 14.3138 3.23783C14.6921 3.39484 15.0358 3.62496 15.3251 3.915L50.4942 39.0903L85.6632 3.915C85.9528 3.62543 86.2965 3.39572 86.6749 3.23901C87.0532 3.08229 87.4587 3.00163 87.8683 3.00163C88.2778 3.00163 88.6833 3.08229 89.0616 3.23901C89.44 3.39572 89.7838 3.62543 90.0733 3.915C90.3629 4.20458 90.5926 4.54835 90.7493 4.9267C90.906 5.30504 90.9867 5.71055 90.9867 6.12007C90.9867 6.52959 90.906 6.9351 90.7493 7.31345C90.5926 7.6918 90.3629 8.03557 90.0733 8.32515L52.6992 45.6992C52.4099 45.9893 52.0662 46.2194 51.6879 46.3764C51.3095 46.5334 50.9038 46.6142 50.4942 46.6142C50.0845 46.6142 49.6789 46.5334 49.3005 46.3764C48.9221 46.2194 48.5784 45.9893 48.2891 45.6992L10.915 8.32515C10.625 8.03583 10.3948 7.69215 10.2378 7.31376C10.0808 6.93538 10 6.52974 10 6.12007C10 5.71041 10.0808 5.30477 10.2378 4.92638C10.3948 4.548 10.625 4.20431 10.915 3.915Z"
       fill="#9EE493"
       id="path354"
       style="stroke:#9ee493;stroke-opacity:1;stroke-width:2.83464567;stroke-dasharray:none" />
  </g>
  <defs
     id="defs377">
    <filter
       id="filter0_d_54_1953"
       x="0"
       y="0"
       width="100.987"
       height="63.6143"
       filterUnits="userSpaceOnUse"
       color-interpolation-filters="sRGB">
      <feFlood
         flood-opacity="0"
         result="BackgroundImageFix"
         id="feFlood360" />
      <feColorMatrix
         in="SourceAlpha"
         type="matrix"
         values="0 0 0 0 0 0 0 0 0 0 0 0 0 0 0 0 0 0 127 0"
         result="hardAlpha"
         id="feColorMatrix362" />
      <feOffset
         dy="7"
         id="feOffset364" />
      <feGaussianBlur
         stdDeviation="3.5"
         id="feGaussianBlur366" />
      <feComposite
         in2="hardAlpha"
         operator="out"
         id="feComposite368" />
      <feColorMatrix
         type="matrix"
         values="0 0 0 0 0 0 0 0 0 0 0 0 0 0 0 0 0 0 0.25 0"
         id="feColorMatrix370" />
      <feBlend
         mode="normal"
         in2="BackgroundImageFix"
         result="effect1_dropShadow_54_1953"
         id="feBlend372" />
      <feBlend
         mode="normal"
         in="SourceGraphic"
         in2="effect1_dropShadow_54_1953"
         result="shape"
         id="feBlend374" />
    </filter>
  </defs>
</svg>
